<?xml version="1.0" encoding="UTF-8" standalone="no"?>
<!-- Created with Inkscape (http://www.inkscape.org/) -->

<svg
   width="210mm"
   height="297mm"
   viewBox="0 0 210 297"
   version="1.1"
   id="svg1"
   xml:space="preserve"
   xmlns="http://www.w3.org/2000/svg"
   xmlns:svg="http://www.w3.org/2000/svg"><defs
     id="defs1" /><g
     id="layer1" /><path
     style="fill:#ffffff"
     d="m 75.067373,169.30517 c -1.602585,-0.14226 -3.495454,-0.63233 -4.619578,-1.196 -1.670853,-0.83783 -2.984777,-2.14186 -3.805674,-3.77703 -0.125057,-0.2491 -0.21529,-0.46281 -0.200518,-0.47489 0.01477,-0.0121 1.2186,-0.60573 2.675173,-1.31921 l 2.648314,-1.29724 0.137456,0.2058 c 0.257157,0.38501 1.168557,1.2273 1.569137,1.45015 1.56136,0.86861 3.88558,1.00208 5.44419,0.31263 0.61969,-0.27412 1.24028,-0.69627 1.58582,-1.07874 0.64702,-0.71617 0.8777,-1.45567 0.9636,-3.08907 0.0501,-0.95191 0.0412,-1.10128 -0.0608,-1.02382 -0.0657,0.0499 -0.293,0.22941 -0.50519,0.39896 -1.97434,1.57756 -6.74684,1.86593 -9.527486,0.57567 -1.325029,-0.61483 -2.968764,-2.03944 -3.754947,-3.25437 l -0.375568,-0.58039 -0.174766,0.24094 c -1.096425,1.51157 -2.127578,2.40572 -3.646099,3.16165 -1.74313,0.86775 -3.285011,1.20627 -5.545667,1.21757 -1.577789,0.008 -2.381111,-0.0985 -3.556,-0.47079 -1.825239,-0.57842 -3.50399,-1.70145 -4.783396,-3.19995 -1.493477,-1.74922 -2.219306,-3.60319 -2.303838,-5.88465 -0.103258,-2.78684 0.751531,-5.05245 2.676315,-7.09354 1.830439,-1.94104 4.196759,-3.08317 6.763423,-3.26442 4.421821,-0.31227 8.097422,1.43547 9.849282,4.6833 l 0.3482,0.64554 0.43484,-0.72508 c 0.563223,-0.93916 1.037302,-1.52461 1.882523,-2.32476 1.641316,-1.55379 3.630933,-2.30634 6.086314,-2.30208 2.23049,0.004 4.03007,0.56973 5.52035,1.7358 0.33383,0.2612 0.62879,0.47491 0.65547,0.47491 0.0267,0 0.0485,-0.381 0.0485,-0.84667 v -0.84666 h 3.25967 3.25967 l 0.001,8.0645 10e-4,8.0645 1.04296,-1.7594 c 0.57363,-0.96767 1.07801,-1.79351 1.12083,-1.83521 0.0464,-0.0452 0.29952,0.0916 0.62628,0.33833 0.70942,0.53574 2.16175,1.28572 2.94943,1.52309 0.84409,0.25437 1.99985,0.21638 2.5316,-0.0832 0.44373,-0.25 0.65432,-0.65318 0.59033,-1.13023 -0.0926,-0.69055 -0.53944,-1.02349 -2.22669,-1.6592 -3.25516,-1.22645 -5.16631,-2.78862 -5.60375,-4.58051 -0.37794,-1.54815 -0.0919,-3.26215 0.75598,-4.52982 0.99326,-1.48504 2.8588,-2.47342 5.35796,-2.83869 0.98107,-0.14339 3.15815,-0.12135 4.09525,0.0415 1.235507,0.21465 2.651727,0.60906 3.485547,0.97071 l 0.76527,0.33191 0.0217,-6.83028 0.0217,-6.83029 h 3.25967 3.25966 l 0.0423,9.44034 c 0.0233,5.19218 0.0735,9.32603 0.11169,9.18633 0.11933,-0.43698 0.7834,-1.77638 1.13852,-2.29638 1.5389,-2.25334 3.53091,-3.56194 6.10962,-4.01354 0.76561,-0.13408 2.53799,-0.11336 3.40431,0.0398 1.39728,0.24704 2.67999,0.81915 3.73356,1.66522 l 0.53063,0.42613 0.0241,-0.85378 0.0241,-0.85378 3.27786,0.0222 3.27786,0.0222 0.0215,9.41917 0.0215,9.41916 h -3.26004 -3.26003 v -1.06804 -1.06804 l -0.57002,0.53322 c -1.83755,1.71894 -4.23235,2.43269 -6.95939,2.07416 -2.17579,-0.28605 -3.80851,-1.1209 -5.35233,-2.7368 -0.94287,-0.98689 -1.68219,-2.16582 -2.11013,-3.36483 -0.15027,-0.42102 -0.15113,-0.40678 -0.15728,2.6035 l -0.006,3.02683 h -3.302 -3.302 l -0.004,-1.79916 -0.004,-1.79917 -0.24544,0.53036 c -0.67521,1.45906 -1.96306,2.48164 -3.853127,3.05946 -1.39093,0.42523 -2.32423,0.54402 -4.27566,0.54422 -1.88143,1.8e-4 -2.68924,-0.11467 -4.11515,-0.5851 -0.81479,-0.26881 -2.25441,-0.94938 -2.65819,-1.25663 l -0.29633,-0.2255 -0.0516,1.71826 c -0.0568,1.89005 -0.13947,2.51883 -0.46817,3.56133 -0.71763,2.27607 -2.23793,3.98249 -4.57037,5.12986 -2.10407,1.03504 -4.89524,1.45467 -7.9009,1.18785 z M 60.08224,154.33941 c 0.631536,-0.20147 1.52699,-0.80104 2.143984,-1.43554 l 0.414429,-0.42619 2.103753,1.05252 c 1.157065,0.57889 2.123608,1.05253 2.147874,1.05253 0.02427,0 -0.01736,-0.14288 -0.0925,-0.3175 -0.393785,-0.91515 -0.625875,-1.79226 -0.84013,-3.175 l -0.0492,-0.3175 h -5.963544 -5.963544 l 0.04821,0.40216 c 0.0799,0.66651 0.286412,1.31061 0.556036,1.73429 0.404259,0.63524 1.43595,1.30575 2.398177,1.55861 0.642322,0.1688 2.392328,0.0962 3.096445,-0.12838 z m 18.641563,-0.3495 c 0.94129,-0.29269 1.93768,-1.1353 2.38399,-2.01606 0.64339,-1.26967 0.62417,-3.08549 -0.046,-4.34279 -0.53456,-1.00293 -1.74493,-1.89486 -2.85779,-2.10591 -1.5777,-0.29921 -3.02313,0.11748 -4.07968,1.17607 -0.915577,0.91735 -1.324356,2.06929 -1.234502,3.47884 0.09512,1.49219 0.749621,2.65681 1.909382,3.39755 0.99358,0.6346 2.65,0.80862 3.92456,0.4123 z m 43.162527,0.13432 c 0.86725,-0.15474 1.61348,-0.54871 2.23844,-1.18179 2.04608,-2.07266 1.42499,-5.84754 -1.1628,-7.06731 -1.72241,-0.81187 -3.79216,-0.48708 -5.07332,0.79611 -0.85521,0.85657 -1.25519,1.86677 -1.25519,3.17015 0,2.32399 1.37383,3.99218 3.55182,4.31285 0.6914,0.10179 0.99204,0.0965 1.70105,-0.03 z m -18.38076,-7.77534 -0.005,-5.0165 -1.05412,2.0955 c -0.68641,1.36454 -1.09928,2.0955 -1.18359,2.0955 -0.0712,0 -0.30919,-0.0907 -0.52883,-0.20159 -0.59633,-0.30102 -1.976837,-0.72099 -2.713007,-0.82533 -0.75951,-0.10765 -1.93011,-0.0401 -2.35084,0.13574 -0.55197,0.23063 -0.70051,1.08134 -0.27069,1.55031 0.26882,0.29331 0.99327,0.60855 2.4742,1.07664 0.69538,0.2198 1.56209,0.52521 1.92601,0.6787 0.801897,0.33819 1.910017,1.06348 2.475617,1.62033 0.44585,0.43895 1.03926,1.29407 1.11928,1.61292 0.0268,0.10685 0.0637,0.19428 0.0819,0.19428 0.0182,0 0.0311,-2.25742 0.0286,-5.0165 z m -42.282895,0.3913 c -0.173333,-0.92394 -0.895882,-1.88487 -1.705555,-2.26823 -1.647563,-0.78008 -3.986013,-0.27377 -4.809326,1.04129 -0.22654,0.36185 -0.473665,1.05969 -0.473665,1.33756 v 0.19658 h 3.523089 3.523089 z m 83.350785,13.03304 c -2.00425,-0.21464 -3.4984,-0.8736 -4.85203,-2.13986 l -0.56664,-0.53006 v 1.06804 1.06804 h -3.25989 -3.25989 l 0.0214,-15.8115 0.0214,-15.8115 h 3.25967 3.25967 l 0.0423,7.22268 0.0423,7.22267 0.59191,-0.47169 c 1.48546,-1.18375 3.23404,-1.74316 5.46793,-1.74929 1.63463,-0.004 2.87978,0.26479 4.13169,0.89354 2.74504,1.37864 4.72106,4.2275 5.16972,7.45329 0.11286,0.81139 0.1143,2.52054 0.003,3.3048 -0.50287,3.53699 -2.80639,6.54751 -5.92371,7.74181 -1.15144,0.44113 -2.91869,0.67075 -4.14867,0.53903 z m 0.38635,-5.79098 c 1.73791,-0.53679 2.82848,-2.13336 2.82848,-4.14086 0,-1.27537 -0.37296,-2.24028 -1.198,-3.09948 -0.57672,-0.6006 -1.24887,-0.98993 -2.02471,-1.17281 -2.28867,-0.53948 -4.47546,0.58931 -5.25547,2.7128 -0.15246,0.41506 -0.18409,0.68299 -0.18409,1.55949 0,0.87651 0.0316,1.14444 0.18409,1.5595 0.82007,2.23254 3.22358,3.33071 5.6497,2.58136 z m 12.63665,5.72702 c -1.51775,-0.3325 -2.87384,-1.71144 -3.19306,-3.24688 -0.59709,-2.87201 1.85745,-5.45956 4.77959,-5.03858 0.89502,0.12894 1.63789,0.51274 2.33308,1.20539 0.85134,0.84822 1.26072,1.8125 1.26072,2.96953 0,1.15928 -0.40021,2.09304 -1.27,2.96314 -1.05084,1.05121 -2.46083,1.46494 -3.91033,1.1474 z"
     id="path2" /></svg>
